# xmcd
#
# Track frame offsets: 
#        150
#        15053
#        30384
#        41159
#        68219
#        83805
#        104195
#        128639
#
# Disc length: 2017 seconds
#
# Revision: 0
# Processed by: cddbd v1.5.2PL0 Copyright (c) Steve Scherf et al.
# Submitted via: ExactAudioCopy v1.0b4
#
DISCID=5d07df08
DTITLE=Roy Buchanan - Rescue Me (LP)
DYEAR=1974
DGENRE=Blues
TTITLE0=Rescue Me
TTITLE1=I'm The Ram
TTITLE2=In The Beginning
TTITLE3=CC Ryder
TTITLE4=Country Preacher
TTITLE5=You're Killing My Love
TTITLE6=She Can't Say No
TTITLE7=Wayfairing Pilgrim
EXTD=
EXTT0=
EXTT1=
EXTT2=
EXTT3=
EXTT4=
EXTT5=
EXTT6=
EXTT7=
PLAYORDER=
